<?xml version="1.0" encoding="UTF-8" standalone="no"?>
<!DOCTYPE svg PUBLIC "-//W3C//DTD SVG 1.1//EN"
 "http://www.w3.org/Graphics/SVG/1.1/DTD/svg11.dtd">
<!-- Generated by graphviz version 2.50.0 (0)
 -->
<!-- Pages: 1 -->
<svg width="880pt" height="231pt"
 viewBox="0.00 0.00 879.65 231.00" xmlns="http://www.w3.org/2000/svg" xmlns:xlink="http://www.w3.org/1999/xlink">
<g id="graph0" class="graph" transform="scale(1 1) rotate(0) translate(4 227)">
<polygon fill="#3f3f3f" stroke="transparent" points="-4,4 -4,-227 875.65,-227 875.65,4 -4,4"/>
<text text-anchor="middle" x="435.82" y="-9.2" font-family="Times New Roman,serif" font-size="16.00" fill="white">Network Map</text>
<!-- R6 -->
<g id="node1" class="node">
<title>R6</title>
<polygon fill="#006699" stroke="#006699" points="93.65,-99 17.65,-99 17.65,-26 93.65,-26 93.65,-99"/>
<text text-anchor="middle" x="55.65" y="-58.8" font-family="Helvetica,sans-Serif" font-size="14.00" fill="white">R6</text>
</g>
<!-- R2 -->
<g id="node3" class="node">
<title>R2</title>
<polygon fill="#006699" stroke="#006699" points="216.65,-223 140.65,-223 140.65,-150 216.65,-150 216.65,-223"/>
<text text-anchor="middle" x="178.65" y="-182.8" font-family="Helvetica,sans-Serif" font-size="14.00" fill="white">R2</text>
</g>
<!-- R6&#45;&#45;R2 -->
<g id="edge3" class="edge">
<title>R6&#45;&#45;R2</title>
<path fill="none" stroke="green" stroke-dasharray="5,2" d="M58,-99.19C60.23,-110.62 64.31,-122.7 71.65,-132 88.83,-153.76 117.19,-167.38 140.39,-175.42"/>
<text text-anchor="middle" x="121.65" y="-120.8" font-family="Courier,monospace" font-size="14.00" fill="white"> &#160;&#160;&#160;&#160;&#160;&#160;&#160;&#160;&#160;&#160;&#160;</text>
<text text-anchor="middle" x="111.39" y="-164.22" font-family="Courier,monospace" font-size="14.00" fill="white">Eth 0/2</text>
<text text-anchor="middle" x="29" y="-102.99" font-family="Courier,monospace" font-size="14.00" fill="white">Eth 0/1</text>
</g>
<!-- R4 -->
<g id="node2" class="node">
<title>R4</title>
<polygon fill="#006699" stroke="#006699" points="462.65,-223 386.65,-223 386.65,-150 462.65,-150 462.65,-223"/>
<text text-anchor="middle" x="424.65" y="-182.8" font-family="Helvetica,sans-Serif" font-size="14.00" fill="white">R4</text>
</g>
<!-- R5 -->
<g id="node4" class="node">
<title>R5</title>
<polygon fill="#006699" stroke="#006699" points="277.65,-99 201.65,-99 201.65,-26 277.65,-26 277.65,-99"/>
<text text-anchor="middle" x="239.65" y="-58.8" font-family="Helvetica,sans-Serif" font-size="14.00" fill="white">R5</text>
</g>
<!-- R5&#45;&#45;R4 -->
<g id="edge2" class="edge">
<title>R5&#45;&#45;R4</title>
<path fill="none" stroke="green" stroke-dasharray="5,2" d="M267.29,-99.05C277.51,-110.6 289.76,-122.8 302.65,-132 328.33,-150.35 361.31,-164.34 386.51,-173.41"/>
<text text-anchor="middle" x="352.65" y="-120.8" font-family="Courier,monospace" font-size="14.00" fill="white"> &#160;&#160;&#160;&#160;&#160;&#160;&#160;&#160;&#160;&#160;&#160;</text>
<text text-anchor="middle" x="357.51" y="-162.21" font-family="Courier,monospace" font-size="14.00" fill="white">Eth 0/1</text>
<text text-anchor="middle" x="238.29" y="-102.85" font-family="Courier,monospace" font-size="14.00" fill="white">Eth 0/1</text>
</g>
<!-- R5&#45;&#45;R2 -->
<g id="edge1" class="edge">
<title>R5&#45;&#45;R2</title>
<path fill="none" stroke="green" stroke-dasharray="5,2" d="M201.38,-89.06C192.65,-96.91 184.52,-106.34 179.65,-117 175.05,-127.06 173.66,-138.85 173.75,-149.79"/>
<text text-anchor="middle" x="229.65" y="-120.8" font-family="Courier,monospace" font-size="14.00" fill="white"> &#160;&#160;&#160;&#160;&#160;&#160;&#160;&#160;&#160;&#160;&#160;</text>
<text text-anchor="middle" x="144.75" y="-138.59" font-family="Courier,monospace" font-size="14.00" fill="white">Eth 0/1</text>
<text text-anchor="middle" x="172.38" y="-77.86" font-family="Courier,monospace" font-size="14.00" fill="white">Eth 0/0</text>
</g>
<!-- SW1 -->
<g id="node5" class="node">
<title>SW1</title>
<polygon fill="#006699" stroke="#006699" points="653.15,-99 564.15,-99 564.15,-26 653.15,-26 653.15,-99"/>
<text text-anchor="middle" x="608.65" y="-58.8" font-family="Helvetica,sans-Serif" font-size="14.00" fill="white">SW1</text>
</g>
<!-- SW1&#45;&#45;R4 -->
<g id="edge7" class="edge">
<title>SW1&#45;&#45;R4</title>
<path fill="none" stroke="green" stroke-dasharray="5,2" d="M566.29,-99.09C548.22,-114.15 530.23,-128.94 525.65,-132 505.84,-145.22 482.41,-157.8 463.11,-167.44"/>
<text text-anchor="middle" x="594.65" y="-120.8" font-family="Courier,monospace" font-size="14.00" fill="white"> &#160;&#160;&#160;&#160;&#160;&#160;&#160;&#160;&#160;&#160;&#160;</text>
<text text-anchor="middle" x="492.11" y="-156.24" font-family="Courier,monospace" font-size="14.00" fill="white">Eth 0/0</text>
<text text-anchor="middle" x="537.29" y="-102.89" font-family="Courier,monospace" font-size="14.00" fill="white">Eth 0/4</text>
</g>
<!-- SW1&#45;&#45;R2 -->
<g id="edge5" class="edge">
<title>SW1&#45;&#45;R2</title>
<path fill="none" stroke="green" stroke-dasharray="5,2" d="M564.14,-71.15C525.06,-79.03 467.48,-93.52 421.65,-117 412.07,-121.91 412.33,-127.31 402.65,-132 341.48,-161.65 262.77,-175.51 216.79,-181.48"/>
<text text-anchor="middle" x="471.65" y="-120.8" font-family="Courier,monospace" font-size="14.00" fill="white"> &#160;&#160;&#160;&#160;&#160;&#160;&#160;&#160;&#160;&#160;&#160;</text>
<text text-anchor="middle" x="245.79" y="-170.28" font-family="Courier,monospace" font-size="14.00" fill="white">Eth 0/0</text>
<text text-anchor="middle" x="535.14" y="-59.95" font-family="Courier,monospace" font-size="14.00" fill="white">Eth 0/2</text>
</g>
<!-- R1 -->
<g id="node6" class="node">
<title>R1</title>
<polygon fill="#006699" stroke="#006699" points="831.65,-223 755.65,-223 755.65,-150 831.65,-150 831.65,-223"/>
<text text-anchor="middle" x="793.65" y="-182.8" font-family="Helvetica,sans-Serif" font-size="14.00" fill="white">R1</text>
</g>
<!-- SW1&#45;&#45;R1 -->
<g id="edge4" class="edge">
<title>SW1&#45;&#45;R1</title>
<path fill="none" stroke="green" stroke-dasharray="5,2" d="M653.2,-70.08C685.95,-76.92 729.78,-90.53 759.65,-117 769.48,-125.72 776.79,-137.94 782.07,-149.65"/>
<text text-anchor="middle" x="821.65" y="-120.8" font-family="Courier,monospace" font-size="14.00" fill="white"> &#160;&#160;&#160;&#160;&#160;&#160;&#160;&#160;&#160;&#160;&#160;</text>
<text text-anchor="middle" x="753.07" y="-138.45" font-family="Courier,monospace" font-size="14.00" fill="white">Eth 0/0</text>
<text text-anchor="middle" x="682.2" y="-58.88" font-family="Courier,monospace" font-size="14.00" fill="white">Eth 0/1</text>
</g>
<!-- R3 -->
<g id="node7" class="node">
<title>R3</title>
<polygon fill="#006699" stroke="#006699" points="708.65,-223 632.65,-223 632.65,-150 708.65,-150 708.65,-223"/>
<text text-anchor="middle" x="670.65" y="-182.8" font-family="Helvetica,sans-Serif" font-size="14.00" fill="white">R3</text>
</g>
<!-- SW1&#45;&#45;R3 -->
<g id="edge6" class="edge">
<title>SW1&#45;&#45;R3</title>
<path fill="none" stroke="green" stroke-dasharray="5,2" d="M637.88,-99.28C641.82,-105.01 645.56,-111.02 648.65,-117 653.92,-127.21 658.24,-138.93 661.62,-149.75"/>
<text text-anchor="middle" x="705.65" y="-120.8" font-family="Courier,monospace" font-size="14.00" fill="white"> &#160;&#160;&#160;&#160;&#160;&#160;&#160;&#160;&#160;&#160;&#160;</text>
<text text-anchor="middle" x="632.62" y="-138.55" font-family="Courier,monospace" font-size="14.00" fill="white">Eth 0/0</text>
<text text-anchor="middle" x="608.88" y="-103.08" font-family="Courier,monospace" font-size="14.00" fill="white">Eth 0/3</text>
</g>
</g>
</svg>
